<svg version="1.0" xmlns="http://www.w3.org/2000/svg"
 width="909.000000pt" height="321.000000pt" viewBox="0 0 909.000000 321.000000"
 preserveAspectRatio="xMidYMid meet">
<g transform="translate(0.000000,321.000000) scale(0.100000,-0.100000)"
fill="#33247f" stroke="none">
<path d="M2022 2995 c-46 -7 -97 -19 -112 -25 -34 -14 -163 -146 -206 -210
-207 -311 -216 -759 -21 -1100 127 -224 336 -424 543 -521 141 -65 366 -119
501 -119 195 0 418 64 588 170 91 56 28 -19 -73 -86 -211 -142 -494 -206 -752
-170 -282 39 -498 131 -685 290 -246 211 -387 442 -447 730 -16 76 -21 139
-21 256 -1 136 2 168 25 257 15 57 43 140 62 186 54 125 49 133 -41 61 -87
-70 -148 -130 -218 -216 l-62 -76 -6 -84 c-8 -111 7 -312 32 -423 35 -160 52
-207 121 -351 262 -540 789 -889 1390 -920 282 -15 576 55 664 157 126 147
220 354 267 584 30 145 30 372 0 518 -60 299 -159 485 -366 693 -102 103 -131
126 -195 156 -136 64 -212 82 -335 82 -245 -1 -453 -122 -560 -325 -92 -176
-97 -370 -16 -574 90 -224 276 -387 526 -462 45 -13 93 -18 190 -17 138 0 200
13 299 60 72 35 88 30 41 -12 -157 -140 -477 -176 -735 -83 -224 82 -423 284
-505 513 -65 181 -67 368 -6 535 45 122 94 192 194 279 133 113 304 172 504
172 60 0 66 2 52 15 -35 35 -275 76 -441 74 -62 -1 -151 -7 -196 -14z"/>
<path d="M5815 2263 c-205 -152 -344 -401 -370 -663 -10 -104 -16 -100 152
-100 80 0 153 -5 164 -10 16 -9 19 -22 19 -78 0 -40 5 -73 12 -80 18 -18 103
-15 122 4 11 11 16 35 16 82 0 55 4 71 20 85 29 24 29 122 0 137 -19 10 -20
23 -22 333 l-3 322 -30 2 c-21 2 -44 -8 -80 -34z m-37 -434 c4 -198 8 -189
-82 -189 -99 0 -106 9 -83 98 28 106 118 250 150 239 8 -2 13 -45 15 -148z"/>
<path d="M4090 2264 c-106 -58 -157 -212 -105 -314 21 -40 54 -65 160 -121
180 -94 179 -93 203 -142 20 -40 22 -50 12 -86 -30 -114 -171 -178 -259 -118
-18 12 -47 47 -65 77 -17 29 -37 55 -43 57 -13 5 -79 -51 -94 -78 -7 -14 -5
-30 9 -62 43 -95 160 -157 298 -157 123 0 223 63 275 175 25 51 29 73 29 141
0 150 -36 197 -225 290 -136 68 -165 91 -165 130 0 64 84 85 147 37 l36 -27
43 48 c42 46 43 49 29 75 -15 30 -63 69 -108 89 -48 21 -127 15 -177 -14z"/>
<path d="M5280 2280 l-55 -5 -8 -90 c-10 -117 -44 -360 -58 -407 -5 -21 -16
-38 -23 -38 -15 0 -87 134 -126 233 -13 35 -26 55 -32 49 -5 -5 -41 -74 -81
-153 -43 -85 -78 -144 -86 -144 -23 0 -63 188 -92 430 -7 55 -17 106 -22 113
-7 9 -30 12 -71 10 l-61 -3 2 -114 c4 -268 128 -831 183 -831 23 0 92 99 165
238 28 53 56 98 62 100 7 2 20 -15 30 -40 40 -101 131 -258 167 -287 25 -21
42 0 70 87 35 112 55 204 96 457 14 88 32 354 25 376 -7 23 -20 25 -85 19z"/>
<path d="M6209 2250 c-83 -44 -159 -170 -159 -264 0 -52 26 -134 51 -160 15
-17 21 -17 47 -7 17 7 40 23 52 36 22 23 22 24 5 69 -20 53 -15 101 16 140 76
97 202 61 233 -66 9 -38 -12 -123 -45 -184 -55 -103 -142 -205 -270 -315 -57
-50 -59 -54 -59 -100 0 -79 -1 -79 249 -79 161 0 222 3 235 13 13 10 17 24 14
67 l-3 55 -105 5 c-96 5 -105 7 -108 26 -2 12 12 38 36 65 152 174 231 395
192 539 -15 58 -96 138 -166 163 -66 23 -168 22 -215 -3z"/>
<path d="M880 1804 c-15 -37 -12 -234 5 -349 45 -316 175 -571 404 -793 188
-183 417 -300 686 -352 141 -28 389 -28 524 0 239 49 453 149 592 279 29 27
20 26 -94 -3 -172 -45 -225 -51 -422 -50 -194 0 -268 9 -446 54 -451 112 -888
472 -1098 905 -48 99 -90 210 -111 293 -12 48 -26 54 -40 16z"/>
<path d="M3988 1114 c-61 -19 -98 -62 -98 -114 0 -74 68 -123 205 -145 73 -11
135 -36 151 -60 35 -54 -28 -102 -135 -104 -93 -2 -151 32 -168 99 -7 27 -14
35 -33 35 -36 0 -46 -26 -30 -75 27 -83 114 -125 247 -118 90 4 163 34 181 73
15 33 36 31 62 -5 33 -46 88 -70 163 -70 36 0 80 6 98 14 78 33 117 112 104
209 -7 47 -6 49 16 45 23 -3 24 -6 29 -125 5 -125 13 -148 46 -141 17 3 20 17
24 130 3 69 7 128 10 131 9 9 103 25 116 20 9 -3 13 -41 16 -133 3 -137 12
-165 46 -144 14 9 17 31 20 137 2 115 4 128 23 137 37 20 54 2 120 -126 35
-69 72 -133 82 -142 22 -20 45 -9 67 34 53 99 51 96 66 83 8 -7 26 -36 40 -65
28 -60 55 -75 85 -48 10 9 19 21 19 25 0 4 29 69 65 144 36 74 65 139 65 144
0 5 -7 14 -15 21 -28 23 -58 -11 -104 -119 -32 -75 -48 -101 -58 -97 -8 4 -16
6 -18 6 -2 0 -26 47 -54 104 -53 110 -78 133 -109 103 -13 -14 -13 -20 7 -57
26 -50 26 -56 0 -114 -14 -32 -26 -46 -36 -44 -9 2 -40 50 -68 107 -29 57 -59
107 -66 112 -8 5 -27 7 -42 4 -41 -7 -67 10 -67 44 0 21 -9 33 -41 54 -44 29
-73 33 -133 16 -44 -12 -96 -58 -96 -84 0 -10 -17 -34 -38 -55 l-39 -37 -42
31 c-38 27 -53 31 -120 34 -64 3 -85 0 -119 -17 -42 -22 -92 -82 -92 -113 0
-24 -19 -33 -33 -16 -30 36 -57 46 -256 89 -54 12 -91 37 -91 63 0 47 91 81
180 67 64 -10 85 -25 104 -71 13 -33 21 -41 39 -38 17 2 23 10 25 40 9 101
-168 169 -320 122z m986 -70 c20 -8 21 -50 2 -57 -7 -3 -34 -9 -60 -12 -37 -6
-47 -4 -52 9 -15 38 60 79 110 60z m-370 -124 c33 -12 66 -66 66 -108 0 -73
-56 -125 -136 -125 -66 0 -134 62 -134 123 0 32 36 95 62 107 29 15 109 16
142 3z"/>
<path d="M8898 1104 c-10 -22 -9 -31 6 -57 17 -31 17 -32 -4 -49 -46 -37 -90
-14 -90 46 0 44 -56 42 -66 -3 -10 -46 -13 -51 -39 -61 -34 -13 -33 -45 3 -62
27 -13 27 -13 32 -141 5 -131 12 -151 50 -144 12 2 16 27 20 135 4 103 8 135
20 142 47 30 59 2 62 -140 2 -100 6 -125 19 -133 9 -6 24 -7 33 -4 15 6 16 25
12 189 -2 101 -5 190 -5 198 -1 8 1 30 5 49 5 27 3 37 -12 48 -25 19 -33 17
-46 -13z"/>
<path d="M5821 989 c-60 -12 -128 -69 -137 -115 -20 -105 19 -198 94 -230 45
-19 139 -20 187 -3 27 10 38 10 47 1 18 -18 46 -14 58 7 15 29 13 318 -2 328
-7 4 -42 8 -78 8 -36 1 -78 4 -95 7 -16 3 -50 2 -74 -3z m153 -100 c25 -28 28
-37 24 -85 -5 -62 -18 -81 -75 -106 -36 -16 -49 -17 -83 -8 -63 17 -90 53 -90
122 0 48 4 61 25 82 14 14 38 28 53 32 15 3 32 7 37 8 27 7 83 -16 109 -45z"/>
<path d="M6127 978 c-16 -12 -17 -30 -15 -172 3 -141 5 -160 21 -170 32 -19
47 16 47 111 0 98 18 145 66 168 17 8 39 15 47 15 21 0 40 27 33 46 -5 14 -15
16 -64 10 -75 -10 -84 -10 -102 -2 -9 3 -23 1 -33 -6z"/>
<path d="M6432 979 c-75 -30 -112 -84 -112 -167 0 -123 64 -182 197 -182 134
0 196 68 194 214 -1 88 -78 146 -192 145 -35 0 -75 -4 -87 -10z m157 -64 c30
-15 45 -40 35 -56 -3 -5 -52 -9 -110 -9 -96 0 -104 1 -104 19 0 11 12 29 26
40 32 25 111 28 153 6z m49 -151 c-2 -9 -20 -30 -40 -47 -44 -35 -103 -41
-155 -14 -32 17 -50 48 -38 67 4 6 55 10 121 10 102 0 115 -2 112 -16z"/>
<path d="M6992 977 c-9 -11 -12 -75 -10 -232 3 -193 5 -219 20 -229 25 -16 41
5 48 62 5 45 6 47 35 45 147 -11 205 2 245 56 42 56 40 56 74 18 52 -57 87
-70 175 -63 87 7 105 8 146 4 l30 -3 0 175 0 174 -124 3 c-111 3 -129 1 -169
-18 -25 -12 -52 -35 -61 -50 -21 -37 -42 -37 -64 1 -10 17 -37 40 -60 51 -39
20 -89 22 -212 8 -5 -1 -22 2 -36 5 -17 5 -29 3 -37 -7z m242 -57 c43 -16 68
-66 63 -129 -3 -46 -9 -59 -36 -83 -26 -24 -40 -28 -87 -28 -48 0 -60 4 -84
28 -59 59 -48 167 20 203 38 21 85 24 124 9z m399 -1 c35 -16 57 -60 57 -114
0 -38 -5 -52 -28 -75 -43 -43 -96 -54 -148 -31 -48 22 -74 62 -74 113 0 40 32
95 63 108 31 12 102 12 130 -1z"/>
<path d="M7811 971 c-19 -19 -21 -33 -21 -160 0 -122 2 -142 19 -162 16 -20
23 -22 38 -13 15 9 19 30 24 118 6 99 8 109 34 136 15 15 46 33 70 39 44 11
59 28 45 51 -6 10 -22 11 -62 6 -72 -11 -80 -11 -105 -2 -16 5 -28 1 -42 -13z"/>
<path d="M8120 979 c-142 -56 -140 -285 3 -338 36 -14 128 -14 163 -1 19 8 36
7 61 -2 57 -21 63 -2 63 177 0 104 -4 155 -12 163 -15 15 -51 15 -66 0 -9 -9
-18 -9 -37 0 -31 14 -140 15 -175 1z m153 -60 c41 -22 56 -52 57 -106 0 -40
-5 -58 -22 -78 -66 -76 -194 -55 -218 35 -18 66 9 134 60 153 27 10 101 7 123
-4z"/>
</g>
</svg>
