 <svg  version="1.0" xmlns="http://www.w3.org/2000/svg"  width="900.000000pt" height="318.000000pt" viewBox="0 0 900.000000 318.000000"  preserveAspectRatio="xMidYMid meet">  <g transform="translate(0.000000,318.000000) scale(0.100000,-0.100000)" fill="#2196f3" stroke="none"> <path d="M1989 2965 c-97 -17 -120 -29 -195 -107 -81 -84 -114 -129 -157 -213 -72 -139 -107 -289 -107 -455 0 -321 111 -580 350 -821 109 -110 209 -183 325 -238 323 -153 693 -152 999 1 55 28 75 31 62 9 -9 -14 -115 -85 -166 -111 -366 -187 -903 -130 -1251 132 -286 216 -460 496 -514 828 -39 242 -9 448 99 693 16 36 16 37 -3 37 -38 0 -233 -182 -307 -285 -27 -38 -33 -58 -39 -123 -13 -151 22 -408 79 -584 79 -240 277 -534 471 -698 272 -230 560 -350 939 -390 180 -20 412 13 587 81 78 31 82 35 145 118 320 426 338 1079 40 1530 -52 79 -172 215 -241 274 -62 52 -213 129 -275 140 -19 4 -55 11 -80 16 -98 21 -258 2 -365 -44 -206 -88 -344 -287 -361 -520 -21 -298 173 -609 461 -736 168 -75 418 -78 583 -7 58 24 70 23 43 -6 -54 -58 -184 -108 -325 -127 -272 -36 -556 80 -746 304 -134 158 -194 327 -193 542 0 107 3 130 31 210 39 115 71 172 139 246 131 141 295 215 507 228 58 3 101 11 103 17 4 13 -89 39 -212 59 -108 18 -321 17 -426 0z"/> <path d="M5810 2273 c-56 -22 -197 -156 -257 -243 -92 -136 -156 -319 -157 -450 l-1 -85 153 -5 c175 -6 172 -4 172 -92 0 -72 15 -88 80 -88 60 0 70 14 70 98 0 46 4 63 20 77 15 14 20 31 20 70 0 39 -5 56 -20 70 -19 17 -20 31 -20 321 0 166 -3 309 -6 318 -6 16 -26 19 -54 9z m-92 -474 c3 -177 2 -179 -81 -179 -67 0 -87 13 -87 56 0 86 114 293 155 280 6 -1 11 -65 13 -157z"/> <path d="M4070 2254 c-115 -50 -176 -214 -120 -324 24 -46 41 -59 195 -139 66 -35 130 -72 142 -84 46 -42 42 -135 -9 -193 -42 -47 -82 -66 -141 -66 -61 0 -89 19 -140 95 -21 32 -42 57 -48 57 -5 0 -28 -17 -51 -38 -37 -35 -40 -42 -34 -74 9 -50 67 -112 134 -144 75 -36 195 -45 270 -20 138 46 225 213 192 369 -20 96 -54 130 -210 209 -74 37 -143 78 -152 89 -58 69 42 146 115 89 14 -11 32 -20 40 -20 16 0 87 74 87 90 0 5 -15 27 -34 48 -58 64 -161 88 -236 56z"/> <path d="M4524 2249 c-29 -47 29 -475 102 -745 39 -147 60 -189 90 -177 18 7 116 156 153 232 40 83 50 95 67 80 8 -7 32 -49 53 -95 61 -129 131 -227 157 -217 55 21 153 509 157 783 l2 145 -56 3 c-42 2 -59 -1 -69 -13 -8 -10 -17 -62 -22 -133 -11 -159 -45 -353 -64 -372 -14 -13 -17 -13 -31 5 -19 25 -103 196 -103 211 0 6 -9 19 -19 28 -19 17 -21 14 -88 -121 -53 -107 -73 -139 -90 -141 -18 -3 -23 4 -33 50 -17 79 -48 271 -60 373 -6 49 -16 95 -22 102 -13 16 -114 17 -124 2z"/> <path d="M6171 2239 c-18 -6 -57 -34 -86 -62 -90 -91 -117 -207 -72 -316 30 -73 45 -81 91 -50 43 29 51 52 36 108 -15 57 -4 103 33 139 63 61 157 47 199 -29 29 -51 20 -142 -22 -223 -43 -85 -154 -221 -242 -297 -89 -76 -88 -74 -88 -126 0 -72 2 -73 250 -73 l220 0 16 25 c11 17 14 35 10 57 -11 53 -20 58 -118 58 -123 0 -125 12 -27 133 60 75 123 195 144 273 21 82 19 198 -4 250 -45 99 -223 169 -340 133z"/> <path d="M872 1783 c-14 -36 -7 -286 12 -388 55 -300 177 -527 396 -739 156 -151 293 -234 490 -299 167 -55 262 -70 450 -69 230 0 396 37 595 132 109 52 278 180 237 180 -4 0 -42 -9 -83 -19 -274 -72 -570 -70 -859 3 -521 133 -986 560 -1160 1066 -48 141 -52 150 -62 150 -5 0 -12 -8 -16 -17z"/> <path d="M3957 1106 c-60 -17 -84 -39 -96 -83 -13 -44 5 -99 39 -125 14 -10 83 -33 154 -50 108 -28 132 -37 149 -59 16 -22 17 -30 7 -49 -26 -49 -164 -70 -243 -37 -30 13 -42 26 -59 67 -17 41 -25 50 -42 48 -23 -3 -32 -41 -22 -83 15 -59 122 -115 221 -115 68 0 154 30 190 67 17 18 35 33 40 33 4 0 24 -17 44 -38 20 -21 55 -43 77 -50 160 -47 295 55 277 208 -5 47 -4 52 13 48 17 -3 20 -15 24 -120 5 -120 13 -143 46 -136 17 3 20 16 24 120 3 67 10 122 16 128 18 18 85 30 106 19 16 -9 18 -24 18 -128 0 -96 3 -121 16 -132 11 -9 20 -10 32 -2 14 8 18 33 22 132 5 117 11 140 41 141 20 0 50 -42 103 -145 34 -65 69 -123 79 -129 25 -16 47 1 79 60 15 27 32 49 37 48 6 -1 15 -2 19 -2 5 -1 19 -25 32 -52 23 -49 54 -71 79 -56 13 8 151 290 151 309 0 22 -25 38 -45 31 -10 -4 -40 -54 -67 -111 -36 -79 -52 -104 -65 -101 -10 2 -36 42 -64 98 -51 105 -68 125 -99 115 -23 -7 -25 -30 -5 -65 20 -35 18 -74 -5 -120 -28 -55 -45 -44 -92 59 -50 109 -70 131 -119 131 -40 0 -53 11 -63 51 -8 34 -65 69 -113 69 -59 0 -120 -36 -146 -85 -12 -23 -37 -55 -55 -70 -30 -25 -34 -26 -50 -12 -57 50 -185 67 -250 33 -36 -19 -80 -69 -88 -101 -8 -33 -26 -37 -60 -14 -42 29 -69 38 -172 60 -104 21 -127 31 -142 59 -25 47 26 81 122 81 85 1 121 -14 147 -62 17 -30 28 -39 44 -37 56 8 15 103 -59 139 -57 27 -160 34 -227 15z m978 -86 c9 -28 0 -38 -46 -50 -51 -14 -71 -7 -67 22 6 44 101 67 113 28z m-349 -134 c28 -28 34 -42 34 -75 0 -56 -22 -95 -64 -115 -111 -52 -223 36 -186 148 18 55 52 76 122 76 55 0 63 -3 94 -34z"/> <path d="M8814 1096 c-4 -9 -3 -36 0 -61 7 -41 5 -46 -17 -56 -34 -15 -64 2 -72 43 -4 18 -12 36 -18 40 -17 11 -47 -11 -47 -34 0 -11 -17 -36 -37 -55 l-38 -34 35 -29 35 -28 5 -124 5 -123 28 -3 c15 -2 28 -2 28 0 1 2 4 61 8 132 5 105 9 131 23 139 12 8 21 7 32 -2 13 -11 16 -35 16 -120 0 -123 5 -147 31 -154 37 -10 40 13 37 250 -3 228 -3 228 -26 231 -13 2 -25 -3 -28 -12z"/> <path d="M5770 981 c-40 -8 -84 -31 -119 -61 -27 -23 -39 -98 -27 -164 19 -101 147 -161 267 -124 29 8 45 8 64 0 21 -10 28 -9 45 8 18 18 20 34 20 163 0 78 -5 149 -10 157 -7 11 -28 15 -77 16 -37 0 -81 3 -98 6 -16 3 -46 3 -65 -1z m127 -80 c29 -21 43 -54 43 -100 0 -91 -116 -153 -193 -103 -43 29 -56 53 -57 104 0 81 66 134 150 121 19 -4 45 -13 57 -22z"/> <path d="M6402 981 c-49 -9 -88 -34 -119 -81 -33 -47 -33 -153 0 -201 64 -97 253 -106 324 -15 29 37 48 144 34 189 -27 80 -129 126 -239 108z m135 -85 c24 -21 26 -26 14 -40 -12 -14 -30 -16 -105 -14 -80 3 -91 5 -94 22 -11 55 130 79 185 32z m29 -129 c23 -22 -62 -87 -113 -87 -50 0 -102 27 -109 57 -4 16 -2 28 7 34 17 11 204 8 215 -4z"/> <path d="M7060 978 c-25 -5 -64 -7 -87 -4 -35 5 -44 2 -53 -14 -6 -11 -10 -101 -10 -217 0 -158 3 -203 14 -219 23 -30 50 -7 56 47 l5 44 79 -3 c100 -4 153 14 199 70 l34 41 39 -37 c54 -51 110 -70 176 -61 29 4 76 8 104 9 35 1 59 7 72 19 20 18 21 18 34 -2 15 -25 53 -28 62 -5 3 9 6 49 6 89 0 114 29 166 102 186 40 10 58 33 41 50 -6 6 -48 7 -107 3 -93 -7 -98 -8 -107 -32 l-10 -26 -19 32 c-18 29 -23 31 -72 30 -29 0 -86 0 -125 1 -78 3 -113 -11 -162 -63 -31 -33 -45 -33 -72 3 -37 50 -120 75 -199 59z m130 -86 c34 -35 47 -90 31 -140 -16 -53 -53 -76 -119 -76 -46 1 -58 6 -84 31 -55 55 -45 155 20 195 15 10 48 18 75 18 40 0 53 -5 77 -28z m383 7 c57 -44 54 -148 -4 -190 -61 -43 -144 -32 -183 23 -19 26 -21 100 -5 131 21 41 51 57 110 57 42 0 63 -5 82 -21z"/> <path d="M6061 967 c-8 -10 -11 -61 -9 -173 3 -156 3 -159 25 -162 31 -5 43 30 43 124 0 109 25 147 113 168 21 5 27 12 27 33 0 26 0 26 -57 19 -77 -10 -74 -9 -104 -2 -17 5 -29 3 -38 -7z"/> <path d="M8008 950 c-54 -36 -73 -74 -73 -151 0 -113 87 -187 203 -174 32 3 84 7 117 8 l60 2 0 170 0 169 -131 3 -130 3 -46 -30z m203 -58 c26 -23 33 -38 37 -80 4 -48 2 -54 -30 -86 -19 -19 -47 -38 -61 -42 -68 -16 -141 27 -153 92 -9 47 2 82 36 115 24 25 36 29 84 29 47 0 61 -4 87 -28z"/> </g> </svg> 