 <svg version="1.0" xmlns="http://www.w3.org/2000/svg"  width="107.000000pt" height="107.000000pt" viewBox="0 0 107.000000 107.000000"  preserveAspectRatio="xMidYMid meet">  <g transform="translate(0.000000,107.000000) scale(0.100000,-0.100000)" fill="#246bbc" stroke="none"> <path d="M473 1003 c-42 -5 -115 -85 -137 -150 -20 -59 -21 -164 -1 -230 20 -66 91 -162 151 -204 76 -52 138 -71 230 -72 71 0 91 4 150 32 49 22 62 25 44 11 -143 -115 -376 -99 -519 35 -126 118 -173 286 -121 435 10 30 17 57 14 59 -2 3 -29 -20 -59 -49 l-55 -54 0 -71 c1 -147 47 -253 160 -365 119 -119 238 -166 405 -158 119 5 159 24 203 98 47 79 57 122 56 240 -1 122 -19 183 -82 265 -74 98 -175 141 -272 116 -203 -54 -206 -333 -5 -427 59 -28 138 -31 192 -9 42 18 53 14 21 -7 -106 -68 -254 -44 -346 57 -95 104 -101 256 -14 348 36 39 71 55 145 71 l62 12 -66 12 c-65 12 -93 13 -156 5z"/> <path d="M94 596 c-13 -33 14 -175 46 -244 35 -75 124 -168 194 -201 150 -73 326 -66 460 19 26 17 47 33 45 35 -2 2 -29 -3 -59 -11 -157 -41 -357 11 -493 127 -63 54 -131 152 -161 230 -19 51 -26 60 -32 45z"/> </g> </svg> 